<svg width="60" height="60" viewBox="0 0 60 60" fill="none" xmlns="http://www.w3.org/2000/svg">
<circle cx="30" cy="30" r="30" fill="#E0E0E0"/>
<path d="M16.3468 35.07C16.0668 35.07 15.8428 34.9907 15.6748 34.832C15.5162 34.664 15.4368 34.4447 15.4368 34.174V26.614H12.8888C12.3288 26.614 12.0488 26.3667 12.0488 25.872C12.0488 25.3773 12.3288 25.13 12.8888 25.13H19.7908C20.3508 25.13 20.6308 25.3773 20.6308 25.872C20.6308 26.3667 20.3508 26.614 19.7908 26.614H17.2428V34.174C17.2428 34.4447 17.1588 34.664 16.9908 34.832C16.8322 34.9907 16.6175 35.07 16.3468 35.07ZM30.4628 25.06C30.7241 25.06 30.9341 25.144 31.0928 25.312C31.2514 25.4707 31.3308 25.6853 31.3308 25.956V34.244C31.3308 34.5053 31.2561 34.7107 31.1068 34.86C30.9574 35.0093 30.7614 35.084 30.5188 35.084C30.2761 35.084 30.0848 35.0093 29.9448 34.86C29.8048 34.7107 29.7348 34.5053 29.7348 34.244V28.476L27.3548 32.984C27.2428 33.1893 27.1214 33.3433 26.9908 33.446C26.8601 33.5393 26.7061 33.586 26.5288 33.586C26.3514 33.586 26.1974 33.5393 26.0668 33.446C25.9361 33.3527 25.8148 33.1987 25.7028 32.984L23.3088 28.546V34.244C23.3088 34.496 23.2341 34.7013 23.0848 34.86C22.9448 35.0093 22.7534 35.084 22.5108 35.084C22.2681 35.084 22.0768 35.0093 21.9368 34.86C21.7968 34.7107 21.7268 34.5053 21.7268 34.244V25.956C21.7268 25.6853 21.8014 25.4707 21.9508 25.312C22.1094 25.144 22.3194 25.06 22.5808 25.06C22.9448 25.06 23.2294 25.2607 23.4348 25.662L26.5428 31.584L29.6368 25.662C29.8421 25.2607 30.1174 25.06 30.4628 25.06ZM45.8463 25.606C45.9116 25.4193 46.0143 25.2793 46.1543 25.186C46.3036 25.0927 46.4669 25.046 46.6443 25.046C46.8683 25.046 47.0596 25.116 47.2183 25.256C47.3863 25.396 47.4703 25.5827 47.4703 25.816C47.4703 25.9 47.4469 26.0213 47.4003 26.18L44.3903 34.51C44.3156 34.6967 44.1896 34.8413 44.0123 34.944C43.8443 35.0467 43.6576 35.098 43.4523 35.098C43.2469 35.098 43.0556 35.0467 42.8783 34.944C42.7009 34.8413 42.5796 34.6967 42.5143 34.51L40.1903 27.916L37.8243 34.51C37.7496 34.6967 37.6236 34.8413 37.4463 34.944C37.2783 35.0467 37.0916 35.098 36.8863 35.098C36.6809 35.098 36.4896 35.0467 36.3123 34.944C36.1443 34.8413 36.0276 34.6967 35.9623 34.51L32.9523 26.18C32.9056 26.04 32.8823 25.9187 32.8823 25.816C32.8823 25.5827 32.9663 25.396 33.1343 25.256C33.3116 25.116 33.5169 25.046 33.7503 25.046C33.9369 25.046 34.1049 25.0927 34.2542 25.186C34.4036 25.2793 34.5109 25.4193 34.5763 25.606L36.9563 32.452L39.4062 25.648C39.4716 25.4613 39.5789 25.3167 39.7283 25.214C39.8776 25.102 40.0409 25.046 40.2183 25.046C40.3956 25.046 40.5589 25.102 40.7083 25.214C40.8669 25.3167 40.9789 25.466 41.0443 25.662L43.4243 32.536L45.8463 25.606Z" fill="#003053"/>
</svg>
